<svg id="Layer_1" data-name="Layer 1" xmlns="http://www.w3.org/2000/svg" viewBox="0 0 23.98 24"><path d="M16,18.57c.36-.27.74-.5,1.08-.8A7.39,7.39,0,0,0,19,15l0-.12s0,0,0-.07H12.55V10a.45.45,0,0,1,.28,0H24v6c-.07.05-.07.14-.1.21a12.31,12.31,0,0,1-.52,1.31,12.12,12.12,0,0,1-2.07,3.09,8.2,8.2,0,0,1-1.37,1.26l-.06,0L17.8,20.09Z" transform="translate(0 0)" fill="#528ef7"/><path d="M16,18.57l1.84,1.52,2.06,1.69.06,0a.5.5,0,0,1-.15.14,12.28,12.28,0,0,1-3.93,2H8.61c-.51-.2-1-.37-1.53-.61A12.23,12.23,0,0,1,1.53,18.2l-.06-.13L1.55,18l3.87-3.17a8.44,8.44,0,0,0,1,1.83,7.3,7.3,0,0,0,9.38,2A.75.75,0,0,1,16,18.57Z" transform="translate(0 0)" fill="#29b446"/><path d="M1.38,6.65a8.89,8.89,0,0,1,1-1.59A12,12,0,0,1,10,.23,12,12,0,0,1,20,2.77l.06.07L16.12,6.07c-.36-.19-.7-.39-1.06-.54A7.31,7.31,0,0,0,5.48,9.59a1,1,0,0,1-.12.28C4.55,9.25,3.78,8.59,3,8Z" transform="translate(0 0)" fill="#f04437"/><path d="M1.38,6.65,3,8c.79.64,1.56,1.3,2.37,1.92a11.65,11.65,0,0,0-.3,1.3,7.33,7.33,0,0,0,.28,3.39c0,.1.06.19.08.28L1.55,18l-.08.06A10,10,0,0,1,.57,16,11.87,11.87,0,0,1,0,11.91a11.93,11.93,0,0,1,1.3-5.14S1.34,6.67,1.38,6.65Z" transform="translate(0 0)" fill="#faba01"/></svg>